<svg xmlns="http://www.w3.org/2000/svg" width="1240" height="400" viewBox="-20 -20 1240 400" font-family="ui-monospace, 'SF Mono', 'JetBrains Mono', Menlo, monospace">
  <defs>
    <linearGradient id="panel" x1="0" y1="0" x2="0" y2="1"><stop offset="0%" stop-color="#0e1712"/><stop offset="100%" stop-color="#0a100c"/></linearGradient>
    <radialGradient id="gTop" cx="26%" cy="-14%" r="82%"><stop offset="0%" stop-color="#46f08a" stop-opacity="0.13"/><stop offset="58%" stop-color="#46f08a" stop-opacity="0.02"/><stop offset="100%" stop-color="#46f08a" stop-opacity="0"/></radialGradient>
    <radialGradient id="gBot" cx="94%" cy="118%" r="60%"><stop offset="0%" stop-color="#2aa863" stop-opacity="0.10"/><stop offset="100%" stop-color="#2aa863" stop-opacity="0"/></radialGradient>
    <filter id="shadow" x="-35%" y="-35%" width="170%" height="170%"><feDropShadow dx="0" dy="5" stdDeviation="10" flood-color="#000000" flood-opacity="0.4"/></filter>
    <filter id="glow" x="-60%" y="-60%" width="220%" height="220%"><feGaussianBlur stdDeviation="4.2" result="b"/><feMerge><feMergeNode in="b"/><feMergeNode in="SourceGraphic"/></feMerge></filter>
    <pattern id="grid" width="34" height="34" patternUnits="userSpaceOnUse"><path d="M34 0H0V34" fill="none" stroke="#46f08a" stroke-opacity="0.05" stroke-width="1"/></pattern>
    <clipPath id="clip"><rect x="24" y="24" width="1152" height="312" rx="24"/></clipPath>
  </defs>

  <g filter="url(#shadow)"><rect x="24" y="24" width="1152" height="312" rx="24" fill="url(#panel)" stroke="#46f08a" stroke-opacity="0.28" stroke-width="1.5"/></g>
  <g clip-path="url(#clip)">
    <rect x="24" y="24" width="1152" height="312" fill="url(#grid)"/>
    <rect x="24" y="24" width="1152" height="312" fill="url(#gTop)"/>
    <rect x="24" y="24" width="1152" height="312" fill="url(#gBot)"/>
  </g>

  <!-- HUD corner brackets -->
  <g stroke="#46f08a" stroke-opacity="0.4" stroke-width="2.4" fill="none" stroke-linecap="square">
    <path d="M50 76V52H74"/><path d="M1150 76V52H1126"/>
    <path d="M50 284V308H74"/><path d="M1150 284V308H1126"/>
  </g>

  <!-- logo -->
  <svg x="76" y="92" width="92" height="92" viewBox="64 69 172 172" preserveAspectRatio="xMidYMid meet" filter="url(#glow)">
    <g fill="#46f08a">
      <path d="M164.99 123.84a3.72 3.72 0 1 1 0-7.44 3.72 3.72 0 1 1 0 7.44m14.9-7.45a3.72 3.72 0 1 0 0 7.44 3.72 3.72 0 1 0 0-7.44m-.01 6.75c-1.67 0-3.02-1.36-3.02-3.02s1.36-3.02 3.02-3.02 3.02 1.36 3.02 3.02-1.35 3.02-3.02 3.02m18.62 27.61v-2.5c0-.03-.01-.05-.01-.08zm7.45 5.44h.01v15.06h-.01z"/>
      <path d="M109.14 80.25v50.7c0 2.76 2.24 5 5 5h39.71c1.2.96 2.48 1.85 3.81 2.65-4.8.24-11.4 5.06-11.29 9.76.03 1.34 1.17 2.39 2.5 2.39h29.73c2.76 0 5 2.24 5 5v15.5c0 18.51-15 33.51-33.51 33.51-17 0-31.05-12.66-33.22-29.07-.33-2.52-2.42-4.44-4.97-4.44H91.61c-2.92 0-5.24 2.49-4.99 5.4 1.45 17.18 9.75 32.41 22.15 42.96 11.08 9.43 25.43 15.14 41.13 15.14s30.05-5.7 41.13-15.14c13.68-11.65 22.37-28.99 22.37-48.36v-91c0-2.76-2.24-5-5-5h-94.26c-2.76 0-5 2.24-5 5m71.55 55.7c-3.01 1.31-6.03 2.08-8.25 2.08-2.32 0-5.38-.77-8.4-2.08-3.99-1.73-7.91-4.42-10.01-7.56-1.64-2.45-2.17-5.18-.74-7.94 9.13-17.57 15.25-18.59 19.14-18.59s10.01 1.01 19.14 18.59c1.43 2.76.87 5.48-.8 7.94-2.13 3.15-6.1 5.83-10.08 7.56m25.27 35.3c0 20.59-11.17 38.62-27.76 48.36a55.7 55.7 0 0 1-28.3 7.7c-10.32 0-19.99-2.81-28.3-7.7-13.73-8.07-23.75-21.8-26.79-37.96-.29-1.54.9-2.96 2.47-2.96h2.92c1.18 0 2.21.82 2.44 1.98 4.19 21.15 22.26 38.43 46.36 38.95.37.01.74.03 1.11.03s.74-.02 1.11-.03c26.17-.59 47.28-22.05 47.28-48.36v-7.62h.01v-15.46c-.05-3.45-3.65-6.93-7.44-8.58-1.31-.57-2.63-.92-3.85-.99 1.35-.8 2.64-1.7 3.85-2.67 2.65-2.14 4.85-4.66 6.16-7.46 1.53-3.27 1.83-6.9.17-10.73-11.9-27.59-19.88-27.59-24.95-27.59s-13.05 0-24.95 27.59c-1.64 3.8-1.36 7.42.14 10.66H119.1a2.5 2.5 0 0 1-2.5-2.5V85.2a2.5 2.5 0 0 1 2.5-2.5h84.36a2.5 2.5 0 0 1 2.5 2.5v71h.01v15.05z"/>
      <path d="m181.22 121.49-.8-1.1a.8.8 0 0 0 .54-.39q.12-.21.12-.48t-.12-.48c-.12-.21-.19-.25-.34-.32-.15-.08-.31-.11-.51-.11h-1.18c-.17 0-.32.13-.32.29v2.55c0 .16.14.29.32.29s.31-.13.31-.29v-1h.55l.77 1.15c.06.09.16.14.27.14h.26c.14-.02.21-.16.13-.25m-.92-1.6c-.06.04-.13.05-.21.05h-.85v-.85h.85c.08 0 .15.02.21.05s.11.09.14.15.05.14.05.22c0 .09-.02.16-.05.23s-.08.11-.14.15m-56.27-26.28v2.18c0 1.08.69 2.03 1.71 2.37l9.46 3.15-9.46 3.15c-1.02.34-1.71 1.3-1.71 2.37v2.18c0 1.71 1.67 2.91 3.29 2.37l17.34-5.78c1.02-.34 1.71-1.3 1.71-2.37v-3.84c0-1.08-.69-2.03-1.71-2.37l-17.34-5.78c-1.61-.54-3.29.67-3.29 2.37"/>
    </g>
  </svg>

  <!-- wordmark + subtitle -->
  <text x="194" y="151" font-size="57" font-weight="800" letter-spacing="-1.6" fill="#8effb6">JayHackPro<tspan font-size="25" dy="-22" fill="#46f08a">®</tspan></text>
  <text x="196" y="182" font-size="18.5" letter-spacing="0.2" fill="#9db0a2" font-family="system-ui, -apple-system, Helvetica, Arial, sans-serif">Cybersecurity software  ·  Los Angeles, California</text>

  <!-- divider -->
  <line x1="78" y1="228" x2="1122" y2="228" stroke="#46f08a" stroke-opacity="0.12" stroke-width="1"/>

  <!-- slogan as a shell command -->
  <text x="78" y="278" font-size="21"><tspan fill="#5f7167">$ </tspan><tspan fill="#46f08a" font-weight="700">echo</tspan><tspan fill="#cfdacf"> "Let's make the world a better place."</tspan></text>
</svg>
